<svg width="50" height="50" viewBox="0 0 50 50" fill="none" xmlns="http://www.w3.org/2000/svg">
<path fill-rule="evenodd" clip-rule="evenodd" d="M46.4535 10.2319C45.6672 11.0475 42.6792 13.525 41.7452 14.1358C39.7245 15.4573 39.2963 15.7098 39.1319 15.6769C38.9921 15.6489 38.7502 15.7591 37.6756 16.3404C35.6835 17.4178 33.7299 18.3726 33.5182 18.372C33.4782 18.3719 33.8527 18.1524 34.3505 17.8844C35.3966 17.321 35.6335 17.1538 34.789 17.5749C32.6956 18.6187 30.1155 19.562 27.6736 20.1763C27.2993 20.2704 26.8727 20.4007 26.7258 20.4657C26.5788 20.5307 26.2614 20.6215 26.0204 20.6675C25.2379 20.8169 24.5924 21.086 24.5924 21.263C24.5924 21.3477 24.4515 21.3617 23.2489 21.3965C22.51 21.4179 21.7527 21.4618 21.566 21.4942C21.3793 21.5265 20.3611 21.5622 19.3032 21.5735C17.8521 21.5889 17.2619 21.6161 16.8991 21.6842C16.4738 21.7641 16.3447 21.7655 15.7817 21.6967C15.4316 21.6539 15.1648 21.6385 15.1889 21.6626C15.213 21.6867 15.2831 21.7143 15.3446 21.7238C15.4837 21.7455 15.598 21.8144 15.598 21.8767C15.598 21.9553 15.43 21.994 15.327 21.9392C15.2739 21.9109 14.8281 21.8584 14.3365 21.8227C13.7859 21.7827 13.2211 21.7038 12.8657 21.6172C12.5484 21.5399 12.0789 21.4525 11.8224 21.4229C11.566 21.3934 11.165 21.3085 10.9315 21.2343C10.6979 21.1601 10.5068 21.1199 10.5068 21.1449C10.5068 21.1698 10.3491 21.1424 10.1562 21.0841C9.96337 21.0257 9.79717 20.9862 9.78693 20.9965C9.77675 21.0067 9.85979 21.0848 9.97157 21.1702C10.0834 21.2554 10.1636 21.3363 10.1499 21.3501C10.1362 21.3638 9.86087 21.2687 9.53809 21.1388C9.06365 20.9478 7.95983 20.5783 7.86383 20.5783C7.72439 20.5783 8.67791 21.1465 9.96942 21.8329C10.2494 21.9817 10.4362 22.104 10.3844 22.1046C10.1678 22.1071 8.17914 21.3198 6.74501 20.6638C6.49611 20.5499 6.31792 20.4825 6.34903 20.5139C6.38015 20.5453 6.82449 20.8238 7.3365 21.1328C8.54056 21.8595 8.62722 22.0101 7.61685 21.6199C7.26567 21.4843 7.03923 21.4274 6.93412 21.4484C6.82958 21.4693 6.64449 21.4236 6.38218 21.312C5.863 21.091 5.82985 21.1001 6.23375 21.3528C6.7113 21.6515 6.54312 21.6449 5.98298 21.3429C5.46713 21.0648 5.44643 21.0565 5.50548 21.1521C5.52743 21.1876 5.88082 21.3769 6.29071 21.5725C7.02073 21.9211 7.37372 22.1615 7.05614 22.0938C6.97836 22.0772 6.86381 22.0446 6.80158 22.0213C6.67753 21.9748 7.51406 22.5334 8.03195 22.8429C8.21082 22.9497 8.35722 23.0552 8.35722 23.0772C8.35722 23.1938 8.20369 23.1683 7.86151 22.9949C5.87459 21.9877 4.5768 21.2575 3.91658 20.7755C3.70383 20.6201 3.55466 20.5384 3.63374 20.6204C3.73274 20.7231 4.86518 21.5097 5.21766 21.7206C6.64721 22.5759 9.13046 23.8203 10.4785 24.357C11.0386 24.5799 11.4331 24.7627 11.3554 24.7629C11.1761 24.7637 10.7604 24.6364 9.6583 24.2431C9.17605 24.071 8.49734 23.8397 8.15007 23.729C7.41535 23.4948 6.08401 22.8488 5.27423 22.3334C4.74475 21.9964 4.47022 21.8443 3.91658 21.5813L3.69031 21.4738L3.83173 21.5905C3.90951 21.6547 3.99374 21.7078 4.01892 21.7085C4.04409 21.7091 4.05043 21.7327 4.03306 21.7609C4.01564 21.7891 4.46598 22.059 5.03376 22.3606C6.48712 23.1327 7.6784 23.8118 7.6784 23.8681C7.6784 23.9619 7.49902 23.9111 6.57621 23.556C5.59316 23.1778 5.46011 23.1912 6.22979 23.5911C6.64732 23.8081 7.14801 24.1823 7.09359 24.2367C7.0657 24.2646 5.78725 23.5537 5.07624 23.115C4.78067 22.9327 4.59891 22.8346 4.6724 22.8971C4.75425 22.9668 4.77614 23.0116 4.72897 23.0128C4.6866 23.0139 4.72834 23.0775 4.82168 23.154C5.00129 23.3011 4.95739 23.3316 4.70436 23.2355C4.45964 23.1424 4.48357 23.2121 4.74803 23.3626C6.15563 24.164 7.24027 24.8254 7.20497 24.8607C7.14614 24.9195 5.32237 23.9394 4.45399 23.3822C3.93819 23.0513 3.94487 23.0548 3.94487 23.1144C3.94487 23.1793 4.94019 23.8306 5.74171 24.2901C6.06104 24.4732 6.65926 24.8226 7.07108 25.0666C8.03071 25.6352 8.30501 25.7727 9.06433 26.066C9.65224 26.293 9.87326 26.4049 9.73387 26.4049C9.70072 26.4049 9.40928 26.3136 9.08616 26.202C8.06306 25.8486 7.84199 25.7826 7.68026 25.7826C7.59349 25.7826 7.42395 25.7417 7.30346 25.6917C6.71871 25.4489 5.20352 24.6484 4.54297 24.2334C3.58718 23.6328 3.37109 23.5091 3.33704 23.5432C3.32171 23.5585 3.5731 23.741 3.89571 23.9486C4.21832 24.1562 4.60955 24.4079 4.76511 24.5078C5.10458 24.7261 6.15466 25.3227 6.85815 25.6972C7.88063 26.2415 8.19261 26.4187 8.16924 26.442C8.11969 26.4916 7.29492 26.2267 6.88706 26.0302C6.13181 25.6665 5.64193 25.4455 5.64193 25.4688C5.64193 25.4813 5.78833 25.5745 5.9672 25.676C6.14607 25.7774 6.50482 25.9966 6.76442 26.1631C7.02401 26.3295 7.49494 26.5954 7.81094 26.7538C8.47256 27.0855 8.88201 27.352 8.83839 27.4226C8.82176 27.4495 8.86577 27.4885 8.9362 27.5092C9.17718 27.5802 9.828 27.8924 9.828 27.9371C9.828 28.0302 8.3592 27.4665 7.39714 27.0041C7.1647 26.8923 6.94193 26.8009 6.90216 26.8009C6.75774 26.8009 6.83507 26.8992 7.05886 27.0001C7.31986 27.1178 7.42344 27.2287 7.21878 27.1713C7.1449 27.1506 7.32626 27.2638 7.62183 27.4228C8.23034 27.7504 8.88144 28.1623 8.8462 28.1975C8.83324 28.2105 8.55249 28.1056 8.22225 27.9646C7.35539 27.5944 7.2048 27.59 7.95247 27.9568C8.3054 28.13 8.60935 28.2717 8.6279 28.2717C8.69431 28.2717 9.43513 28.74 9.4094 28.7657C9.34383 28.8312 6.99969 27.8881 6.3866 27.5495C6.25168 27.475 6.12932 27.426 6.11473 27.4406C6.06184 27.4934 7.9639 28.4871 8.89462 28.8928C9.6032 29.2016 10.7024 29.624 11.1149 29.7459C11.3616 29.8188 11.4568 29.9368 11.2281 29.8861C11.158 29.8706 10.8081 29.7934 10.4503 29.7147C10.0925 29.6359 9.73608 29.555 9.6583 29.5349C9.52112 29.4995 9.51987 29.5018 9.61587 29.6108C9.67029 29.6725 9.71487 29.7487 9.71487 29.7799C9.71487 29.8112 9.74671 29.8397 9.78558 29.8435C9.8245 29.8472 10.0599 29.9025 10.3088 29.9664C10.9681 30.1357 12.6713 30.4727 13.0131 30.5014C13.1747 30.515 13.3452 30.5401 13.3918 30.5571C13.4986 30.5962 15.4066 30.8088 15.8243 30.8282C15.9954 30.8362 17.0391 30.8417 18.1436 30.8405C19.6767 30.8388 20.3525 30.815 21.0003 30.7399C22.2786 30.5917 23.8319 30.3197 24.6207 30.1058C24.6829 30.089 24.8067 30.0619 24.8958 30.0458C25.1517 29.9994 26.413 29.6462 26.6006 29.5683C26.6939 29.5296 26.7886 29.5017 26.811 29.5064C26.849 29.5144 27.5003 29.2906 27.8168 29.1608C27.8946 29.1289 27.9878 29.0966 28.0239 29.089C28.1968 29.0525 29.038 28.695 29.0746 28.6425C29.0975 28.6097 29.1165 28.6009 29.117 28.6231C29.1178 28.6603 29.8674 28.3599 30.1135 28.2237C30.1726 28.1911 30.4819 28.0447 30.8008 27.8983C31.1197 27.752 31.3806 27.6065 31.3806 27.5748C31.3806 27.5433 31.3965 27.5332 31.4158 27.5526C31.4575 27.5943 32.0127 27.3232 32.0728 27.2319C32.0963 27.196 32.1151 27.1931 32.116 27.2251C32.1172 27.2624 32.132 27.2621 32.1593 27.2245C32.1822 27.1931 32.3343 27.1061 32.4973 27.0313C32.6603 26.9564 32.8449 26.8475 32.9074 26.7893C32.9699 26.731 33.0211 26.6966 33.0211 26.7128C33.0211 26.7473 33.9976 26.1794 34.0394 26.1205C34.0549 26.0986 34.1221 26.0638 34.1887 26.043C34.2552 26.0223 34.3726 25.9488 34.4497 25.8798C34.5268 25.8108 34.6192 25.7479 34.6551 25.7398C34.7776 25.7126 35.6799 25.087 35.6799 25.0293C35.6799 24.9977 35.6947 24.9867 35.7129 25.0048C35.782 25.0739 38.4612 23.0835 39.0011 22.5621C39.1321 22.4355 39.2554 22.332 39.2752 22.332C39.295 22.332 39.4801 22.1856 39.6865 22.0067C39.893 21.8278 40.1642 21.5927 40.2892 21.4843C40.4142 21.3759 40.6772 21.1278 40.8737 20.9328C41.0702 20.7379 41.2507 20.5783 41.2747 20.5783C41.2988 20.5783 41.4075 20.4829 41.5163 20.3662C41.625 20.2496 41.8969 19.9822 42.1204 19.7722C42.3439 19.5622 42.511 19.3904 42.4918 19.3904C42.4151 19.3904 41.3933 20.0921 41.3933 20.1448C41.3933 20.1758 41.3773 20.1852 41.3578 20.1657C41.3382 20.1461 41.2172 20.2154 41.0891 20.3196C40.8248 20.5343 39.4977 21.4269 39.4427 21.4269C39.4229 21.4269 39.425 21.3951 39.4474 21.3561C39.471 21.3151 39.4665 21.3052 39.4366 21.3326C39.4083 21.3585 39.3851 21.4073 39.3851 21.441C39.3851 21.4747 39.3497 21.5141 39.3065 21.5285C39.2548 21.5457 39.243 21.5303 39.272 21.4833C39.2963 21.4441 39.2185 21.4783 39.0993 21.5593C38.98 21.6404 38.869 21.6932 38.8526 21.6768C38.8361 21.6604 38.8491 21.6293 38.8814 21.6077C39.2703 21.3469 39.8733 20.896 39.9073 20.8405C39.9312 20.8015 40.689 20.2144 41.5913 19.5358C42.4935 18.8572 43.2813 18.2548 43.3417 18.1972C43.5447 18.0039 43.4005 18.036 43.0391 18.2644C42.8422 18.389 42.672 18.4818 42.661 18.4708C42.65 18.4597 43.0711 18.0966 43.5969 17.6638C44.1228 17.231 44.5485 16.8536 44.5429 16.8251C44.5374 16.7967 44.8001 16.5458 45.1268 16.2677C45.4535 15.9896 45.7142 15.7378 45.7062 15.7081C45.6982 15.6785 45.7864 15.5721 45.9023 15.4717C46.0181 15.3713 46.1901 15.2169 46.2845 15.1285C46.4191 15.0026 46.426 14.9873 46.3163 15.0578C46.152 15.1635 46.0362 15.1774 46.1337 15.0799C46.2292 14.9844 46.2182 14.9186 46.1135 14.9588C46.0528 14.9822 46.0707 14.9258 46.1715 14.7774C46.2662 14.6379 46.2982 14.5429 46.2625 14.5072C46.1975 14.4422 46.0511 14.5305 45.5117 14.9595C45.3033 15.1253 45.0997 15.2616 45.0591 15.2624C45.0186 15.2633 44.8963 15.3408 44.7874 15.4347C44.4072 15.7625 44.0169 16.0401 43.7358 16.1825C43.5801 16.2614 43.2502 16.4757 43.0028 16.6587C42.7553 16.8417 42.3875 17.0909 42.1852 17.2124C41.983 17.3339 41.6094 17.5693 41.355 17.7355C41.1007 17.9017 40.8438 18.047 40.7844 18.0585C40.7249 18.0699 40.5013 18.1864 40.2874 18.3173C39.8822 18.5653 39.4477 18.748 39.4797 18.6569C39.4899 18.6279 39.992 18.2696 40.5956 17.8607C41.6796 17.1262 42.7501 16.3484 43.7409 15.5755C44.7846 14.7612 46.2816 13.5201 45.9188 13.7698C45.5291 14.0381 44.9005 14.541 44.9005 14.5846C44.9005 14.6143 44.8809 14.6322 44.8568 14.6245C44.8124 14.6101 43.2663 15.7638 43.0792 15.9508C43.0231 16.007 42.9772 16.0388 42.9772 16.0217C42.9772 16.0045 42.8874 16.059 42.7777 16.1427C42.6679 16.2264 42.5658 16.2825 42.5507 16.2674C42.5356 16.2523 42.8099 16.0219 43.1603 15.7554C44.2634 14.9165 45.9953 13.4624 46.0099 13.3629C46.0209 13.2881 45.9912 13.2977 45.8723 13.4075C45.6292 13.6319 45.0696 14.0346 45.0408 14.0058C45.0263 13.9913 45.2852 13.7395 45.6162 13.4463C46.3519 12.7946 47.5097 11.5844 47.4656 11.513C47.4479 11.4844 47.3523 11.5395 47.2532 11.6356C47.1541 11.7316 47.0544 11.8102 47.0316 11.8102C46.9648 11.8102 47.23 11.468 47.4619 11.255C47.7264 11.0121 48.0353 10.6269 47.9967 10.5883C47.9809 10.5725 47.6413 10.8663 47.2421 11.2414C46.4321 12.0024 46.1624 12.1646 46.8393 11.4837C47.0797 11.2419 47.2764 11.0202 47.2764 10.9911C47.2764 10.9619 47.1667 11.0458 47.0326 11.1774C46.8984 11.3091 46.7734 11.4014 46.7546 11.3826C46.6965 11.3246 46.4845 11.4694 46.4845 11.5671C46.4845 11.6178 46.4668 11.6417 46.4453 11.6202C46.4238 11.5986 46.2716 11.7138 46.1073 11.8762C45.9429 12.0384 45.7962 12.1591 45.7813 12.1442C45.7664 12.1292 45.9163 11.9526 46.1143 11.7517C46.3124 11.5508 46.4509 11.3718 46.4222 11.3541C46.3935 11.3364 46.515 11.1581 46.6922 10.9579C47.27 10.3054 47.3082 10.2495 46.936 10.6006C46.5101 11.0024 45.9902 11.4142 45.9087 11.4142C45.8776 11.4142 46.0072 11.2451 46.1966 11.0383C46.7428 10.4423 46.6401 10.4547 45.9188 11.072C45.8099 11.1652 45.6831 11.2421 45.6371 11.243C45.591 11.2438 45.7835 11.0091 46.0649 10.7212C46.5619 10.2129 46.7496 10 46.7008 10C46.6878 10 46.5765 10.1044 46.4535 10.2319ZM46.8208 11.0041L46.6259 11.2162L46.838 11.0213C47.0354 10.8398 47.0762 10.792 47.033 10.792C47.0235 10.792 46.9281 10.8874 46.8208 11.0041ZM47.0192 11.0324L46.7956 11.2728L47.036 11.0492C47.2596 10.8412 47.3024 10.792 47.2596 10.792C47.2504 10.792 47.1422 10.9001 47.0192 11.0324ZM47.552 11.4001C47.4817 11.4898 47.4837 11.4918 47.5734 11.4215C47.6677 11.3475 47.6976 11.3011 47.651 11.3011C47.6393 11.3011 47.5947 11.3456 47.552 11.4001ZM44.3631 17.3539C44.3439 17.385 44.3536 17.4105 44.3847 17.4105C44.4159 17.4105 44.457 17.385 44.4763 17.3539C44.4955 17.3228 44.4858 17.2974 44.4547 17.2974C44.4236 17.2974 44.3824 17.3228 44.3631 17.3539ZM43.8679 17.7036C43.658 17.8599 43.4863 18.0122 43.4863 18.0421C43.4863 18.0941 43.7812 17.897 44.1347 17.6087C44.4553 17.3471 44.2468 17.4213 43.8679 17.7036ZM3.01149 22.4827C3.12915 22.6041 3.83812 23.0799 3.86347 23.0545C3.87806 23.0399 3.75599 22.9393 3.59216 22.8311C3.14595 22.5361 2.94836 22.4175 3.01149 22.4827ZM7.40279 28.9314C7.44545 28.9831 7.62041 29.0865 7.79153 29.1613C7.96265 29.2361 8.20811 29.3475 8.33702 29.4089C8.57433 29.5218 9.55314 29.8099 9.5864 29.7766C9.60071 29.7623 8.69663 29.3981 8.58349 29.3726C8.56794 29.3691 8.30382 29.2472 7.99659 29.1018C7.39533 28.8172 7.28145 28.7845 7.40279 28.9314Z" fill="#0177C1"/>
<path fill-rule="evenodd" clip-rule="evenodd" d="M45.1637 18.2637C44.9506 18.4209 44.7626 18.5359 44.746 18.5193C44.7293 18.5026 44.601 18.59 44.4607 18.7135C44.1113 19.021 44.0571 18.9947 44.3112 18.6409L44.5245 18.3439L44.3024 18.5103C44.1803 18.6017 43.9976 18.7384 43.8965 18.8139C43.6045 19.0321 43.6833 18.8562 43.9955 18.593C44.151 18.4618 44.2783 18.3286 44.2783 18.2971C44.2783 18.2655 44.3229 18.1896 44.3773 18.1285C44.4317 18.0674 44.2379 18.199 43.9466 18.4211C43.6553 18.6431 43.3945 18.8247 43.367 18.8247C43.3395 18.8247 42.967 19.1649 42.539 19.5805C38.452 23.551 34.1165 26.5344 29.7494 28.3819C25.8217 30.0434 21.9564 30.7784 17.6345 30.6855C14.8082 30.6248 12.1202 30.2272 9.47339 29.4782C9.20056 29.401 8.946 29.3486 8.90771 29.3618C8.86941 29.3749 8.70044 29.3387 8.5322 29.2813C8.36403 29.2238 8.17735 29.1768 8.11739 29.1768C8.05742 29.1768 7.81769 29.1004 7.58457 29.0071C7.00632 28.7755 6.94783 28.7953 7.43132 29.0589C7.65318 29.1798 7.96403 29.3678 8.12202 29.4765C8.28002 29.5852 8.64308 29.771 8.92881 29.8894C9.21453 30.0078 9.42293 30.1132 9.39193 30.1235C9.26522 30.1658 8.26107 29.7464 7.18344 29.2012C6.55338 28.8824 6.03792 28.629 6.03792 28.6381C6.03792 28.6472 6.21612 28.7624 6.4339 28.8939C6.8477 29.144 6.91627 29.2089 6.70261 29.1483C6.49602 29.0898 7.14294 29.4524 7.90469 29.8222L8.6118 30.1654L8.36476 30.199C8.22894 30.2175 8.09702 30.2687 8.07168 30.3129C7.92935 30.5603 7.86798 30.6056 7.75608 30.5457C7.69482 30.5129 7.81723 30.6618 8.02812 30.8764C8.43434 31.29 8.96269 31.6148 9.036 31.4962C9.08567 31.4158 9.26878 31.4626 9.91287 31.7198C10.3839 31.9079 10.4968 31.9776 10.4335 32.0409C10.4015 32.0729 9.94749 31.946 9.57833 31.802C9.50564 31.7736 9.48267 31.7802 9.50852 31.822C9.63467 32.0261 9.17149 31.8522 7.93297 31.2305C7.37764 30.9517 5.79892 30.0688 5.1894 29.6961L5.04797 29.6096L5.16111 29.7288C5.32493 29.9013 6.54218 30.6376 7.62185 31.2173C8.68483 31.7881 9.86915 32.3209 11.018 32.7454C11.4524 32.9058 11.8079 33.0497 11.8079 33.065C11.8079 33.1395 10.2753 32.8023 10.0389 32.6758C9.97979 32.6442 9.91853 32.6312 9.90275 32.647C9.88697 32.6628 10.0947 32.7825 10.3645 32.9131C10.929 33.1863 10.9454 33.2972 10.4058 33.191C10.2179 33.1541 10.0302 33.1356 9.98856 33.1499C9.94693 33.1643 10.1674 33.2204 10.4786 33.2746C11.362 33.4285 12.7734 33.8069 13.0346 33.9599C13.253 34.088 13.3905 34.2882 13.3132 34.3655C13.253 34.4256 11.24 33.9572 10.3679 33.6802C9.8296 33.5092 9.74305 33.5224 10.2238 33.7022C10.4125 33.7728 10.7119 33.9179 10.8892 34.0247C11.0666 34.1315 11.4668 34.3067 11.7785 34.4141C12.382 34.622 12.713 34.7752 12.713 34.8465C12.713 34.9057 12.6554 34.9024 12.0342 34.8073C11.2112 34.6815 10.064 34.2641 8.66859 33.5829C7.84478 33.1808 7.9625 33.2875 8.92292 33.8135C9.56633 34.166 10.3557 34.5274 11.1008 34.8109L11.3837 34.9184L11.1857 34.9468L10.9877 34.9751L11.3553 35.1351C11.5828 35.2342 11.8703 35.3075 12.1097 35.3275C12.4012 35.352 12.5127 35.3858 12.5618 35.4645C12.6106 35.5427 12.6958 35.569 12.8996 35.569C13.3622 35.569 13.6527 35.6724 13.872 35.9152C13.9813 36.0361 14.0707 36.1549 14.0707 36.1792C14.0707 36.2035 13.8921 36.1986 13.6739 36.1684C13.1182 36.0917 13.042 36.1873 13.5159 36.3669C13.7717 36.4638 13.837 36.5072 13.7466 36.5201C13.4663 36.5604 11.8763 36.0124 11.1456 35.6237L10.8511 35.4669L10.9678 35.6249C11.1395 35.857 12.3243 36.4251 12.901 36.5518C13.392 36.6596 14.9184 37.092 15.0424 37.1583C15.0991 37.1887 15.1455 37.2716 15.1455 37.3427C15.1455 37.4696 15.1382 37.4711 14.7353 37.4258C14.5098 37.4004 13.9943 37.3174 13.5898 37.2413C13.1854 37.1652 12.7281 37.0863 12.5736 37.0661C11.9485 36.9841 10.3431 36.375 8.78869 35.6302C8.38818 35.4383 8.0512 35.2906 8.03983 35.3019C8.02128 35.3205 8.75474 35.6825 10.7614 36.6453C11.1348 36.8244 11.8475 37.1037 12.3453 37.2661C13.6424 37.6892 13.725 37.7667 12.6442 37.5465C12.3322 37.4829 12.067 37.4407 12.055 37.4528C12.016 37.4917 13.2259 37.7671 14.0918 37.9165C14.932 38.0613 15.0615 38.101 15.301 38.2867C15.4808 38.4261 15.3753 38.454 14.669 38.454C13.9695 38.454 13.552 38.3561 12.3936 37.9201C11.9358 37.7479 11.5515 37.6168 11.5394 37.6289C11.5017 37.6666 12.6908 38.1068 13.5259 38.3642C14.9912 38.8158 15.891 38.9943 17.7476 39.2018C18.8805 39.3284 20.2183 39.342 21.7876 39.2429C22.2518 39.2136 22.6402 39.1983 22.6508 39.2089C22.6615 39.2195 22.3659 39.3111 21.994 39.4124C21.6221 39.5137 21.2719 39.6323 21.2156 39.676C21.1454 39.7306 21.14 39.7477 21.1983 39.7305C21.245 39.7169 21.8715 39.5762 22.5905 39.418C23.7997 39.1519 24.0833 39.1202 24.0833 39.2513C24.0833 39.3164 23.3636 39.6784 22.8954 39.8487L22.5277 39.9825L22.8388 39.9504C23.0099 39.9328 23.3663 39.8533 23.6308 39.7736C25.0618 39.3428 25.6124 39.161 26.1086 38.9551C26.4103 38.8299 26.807 38.6902 26.9901 38.6445C27.3787 38.5475 27.8986 38.3192 28.2954 38.0715C28.5889 37.8882 28.7397 37.8822 28.5786 38.0601C28.4401 38.2132 28.5162 38.2806 28.7641 38.2244C28.922 38.1886 28.9969 38.1965 29.0561 38.2553C29.1244 38.3233 29.0911 38.3542 28.8213 38.4735C28.6483 38.55 28.4515 38.6301 28.3839 38.6516C28.3162 38.6731 28.2727 38.7025 28.2872 38.717C28.3368 38.7665 29.6545 38.218 30.617 37.7472C31.9534 37.0935 32.9962 36.4106 34.7057 35.0697C35.3986 34.5262 35.6233 34.3129 35.6233 34.1988C35.6233 34.129 35.357 34.1474 34.9888 34.2428C34.802 34.2913 34.6366 34.3184 34.6214 34.3031C34.5729 34.2547 34.8863 33.8867 35.1606 33.6697C35.3062 33.5546 35.7181 33.1646 36.0759 32.8029C36.6693 32.203 37.839 31.0704 38.4478 30.5062C38.5821 30.3818 38.7694 30.1654 38.8641 30.0254C38.9588 29.8853 39.206 29.5671 39.4135 29.3182C40.028 28.5811 39.9339 28.644 38.9978 29.5965C38.511 30.0918 38.0972 30.4816 38.0783 30.4627C38.0528 30.4372 39.1471 29.1412 39.3552 28.9505C39.4183 28.8928 40.127 28.0697 40.2071 27.9612C40.2611 27.888 40.2233 27.9037 40.0992 28.0059C39.9943 28.0924 39.8953 28.1501 39.8792 28.1341C39.8486 28.1036 40.0865 27.7711 40.2575 27.6054C40.9239 26.9595 42.4359 25.1574 43.448 23.8028C44.4235 22.4971 44.4401 22.4754 44.8576 21.9741C45.0362 21.7596 45.1677 21.5603 45.1497 21.5313C45.1318 21.5024 45.2045 21.3715 45.3112 21.2406C45.5662 20.9279 45.5198 20.8016 45.2568 21.0927C44.8977 21.4902 44.9877 21.2765 45.3831 20.7929C45.6009 20.5264 45.6773 20.408 45.5599 20.5187C45.2818 20.781 45.2985 20.6884 45.5935 20.3319C45.796 20.0874 45.8094 20.0573 45.6784 20.1415C45.4662 20.2779 45.4829 20.1999 45.7176 19.9585C45.8247 19.8483 45.9711 19.676 46.0428 19.5756C46.1146 19.4753 46.2845 19.2589 46.4203 19.0948C46.5562 18.9307 46.5842 18.8855 46.4826 18.9944C45.8376 19.6858 45.6757 19.8449 45.6468 19.816C45.6289 19.7982 45.7403 19.6506 45.8942 19.488C46.0482 19.3254 46.2885 19.0651 46.4283 18.9096L46.6825 18.6269L46.4421 18.8504C46.1591 19.1135 46.1206 19.0592 46.3856 18.7705C46.4868 18.6603 46.2013 18.9492 45.7511 19.4124C45.301 19.8757 44.8644 20.2834 44.7809 20.3185C44.6975 20.3536 44.339 20.6619 43.9843 21.0036C43.1886 21.7701 42.4984 22.3886 42.4386 22.3886C42.3669 22.3886 42.9152 21.7955 44.2185 20.4635C44.8857 19.7816 45.4168 19.209 45.3988 19.191C45.3808 19.1729 45.484 19.0438 45.6283 18.904L45.8905 18.6498L45.5511 18.8273C45.3644 18.925 45.129 19.0839 45.0278 19.1804C44.6459 19.5452 44.8648 19.2255 45.3672 18.6847C45.8844 18.128 45.8863 18.1249 45.5304 18.4195C45.1328 18.7486 44.9788 18.7735 45.3295 18.4518C45.537 18.2616 45.5318 18.2633 45.2467 18.4801C44.7886 18.8285 44.7655 18.7539 45.204 18.3415C45.4175 18.1406 45.583 17.9766 45.5717 17.9771C45.5604 17.9775 45.3768 18.1065 45.1637 18.2637ZM11.8539 37.4179C11.8947 37.4342 11.9435 37.4322 11.9623 37.4134C11.9811 37.3946 11.9477 37.3813 11.8881 37.3837C11.8222 37.3864 11.8088 37.3998 11.8539 37.4179Z" fill="#FBA81A"/>
</svg>
